<svg width="3769" height="162" viewBox="0 0 3769 162" fill="none" xmlns="http://www.w3.org/2000/svg">
<path d="M1919 161H1850.24V61.056L1757.92 8.61905V161H1726.1V52.0924H1628.85V161H1600.62V8.61905H1509.19V161H1476.48V92.4286L1452.73 68.6751H1380.57L1356.82 92.4286V161H1328.14V22.0644H1219.24V61.056H1178.9L1171.29 161H1143.05V61.056L1096.44 32.3726L1051.63 61.056V161H1012.64V68.6751L972.304 32.3726L924.351 68.6751V161H891.636V41.3361L786.768 78.9832V161H750.915V41.3361H655.01V161H622.294V68.6751H556.416V22.0644H486.055V161H445.721V1H356.09V161H330.545V1H255.703L248.084 41.3361H215.369V161H168.761V68.6751H74.6482V161H8.47578e-05" stroke="#90A183" stroke-opacity="0.8" stroke-width="2"/>
<path d="M3769 161H3700.24V61.056L3607.92 8.61905V161H3576.1V52.0924H3478.85V161H3450.62V8.61905H3359.19V161H3326.48V92.4286L3302.73 68.6751H3230.57L3206.82 92.4286V161H3178.14V22.0644H3069.24V61.056H3028.9L3021.29 161H2993.05V61.056L2946.44 32.3726L2901.63 61.056V161H2862.64V68.6751L2822.3 32.3726L2774.35 68.6751V161H2741.64V41.3361L2636.77 78.9832V161H2600.92V41.3361H2505.01V161H2472.29V68.6751H2406.42V22.0644H2336.06V161H2295.72V1H2206.09V161H2180.55V1H2105.7L2098.08 41.3361H2065.37V161H2018.76V68.6751H1924.65V161H1850" stroke="#90A183" stroke-opacity="0.8" stroke-width="2"/>
</svg>
