<svg width="179" height="208" viewBox="0 0 179 208" fill="none" xmlns="http://www.w3.org/2000/svg">
<g filter="url(#filter0_d_126_7316)">
<path d="M13 117V192H163V117M13 86.5001V81.0067C13 39.9753 45.9723 6.56037 87.0001 6.01333V6.01333C128.809 5.45588 163 39.1943 163 81.0067V86.5001" stroke="#ACACAC" stroke-width="2"/>
</g>
<path d="M29.614 87C29.614 54.9675 55.5815 29 87.614 29V29C119.647 29 145.614 54.9675 145.614 87V171H29.614V87Z" fill="#FCEFD1"/>
<circle cx="87.114" cy="52.5" r="31.5" fill="white" stroke="#ACACAC" stroke-width="2"/>
<rect x="128.114" y="148.5" width="20" height="33" rx="10" fill="white" stroke="#ACACAC"/>
<path d="M138.5 165V187" stroke="#ACACAC"/>
<rect x="28.114" y="156.5" width="22" height="23" rx="11" fill="white" stroke="#ACACAC"/>
<path d="M39 168V183.5" stroke="#ACACAC"/>
<mask id="path-8-inside-1_126_7316" fill="white">
<path d="M60 117.5C60 117.224 60.2239 117 60.5 117H115.5C115.776 117 116 117.224 116 117.5V186.5C116 186.776 115.776 187 115.5 187H60.5C60.2239 187 60 186.776 60 186.5V117.5Z"/>
</mask>
<path d="M60 117.5C60 117.224 60.2239 117 60.5 117H115.5C115.776 117 116 117.224 116 117.5V186.5C116 186.776 115.776 187 115.5 187H60.5C60.2239 187 60 186.776 60 186.5V117.5Z" fill="white"/>
<path d="M58 117.5C58 116.119 59.1193 115 60.5 115H115.5C116.881 115 118 116.119 118 117.5L114 119H62L58 117.5ZM116 187H60H116ZM60.5 187C59.1193 187 58 185.881 58 184.5V117.5C58 116.119 59.1193 115 60.5 115L62 119V186.5C62 186.776 62 187 62 187H60.5ZM115.5 115C116.881 115 118 116.119 118 117.5V184.5C118 185.881 116.881 187 115.5 187H114C114 187 114 186.776 114 186.5V119L115.5 115Z" fill="#ACACAC" mask="url(#path-8-inside-1_126_7316)"/>
<mask id="path-10-inside-2_126_7316" fill="white">
<path d="M82 174C82 173.448 82.4477 173 83 173H93C93.5523 173 94 173.448 94 174V187H82V174Z"/>
</mask>
<path d="M82 174C82 173.448 82.4477 173 83 173H93C93.5523 173 94 173.448 94 174V187H82V174Z" fill="white"/>
<path d="M81 174C81 172.895 81.8954 172 83 172H93C94.1046 172 95 172.895 95 174H93H83H81ZM94 187H82H94ZM81 187V174C81 172.895 81.8954 172 83 172V174V187H81ZM93 172C94.1046 172 95 172.895 95 174V187H93V174V172Z" fill="#ACACAC" mask="url(#path-10-inside-2_126_7316)"/>
<path d="M157 53.0001H119.614" stroke="#ACACAC" stroke-width="2"/>
<path d="M19.114 53.0001H54.614" stroke="#ACACAC" stroke-width="2"/>
<path d="M87.614 6.5V20" stroke="#ACACAC" stroke-width="2"/>
<path d="M120 14L109 29" stroke="#ACACAC" stroke-width="2"/>
<path d="M56.114 14L65.614 29" stroke="#ACACAC" stroke-width="2"/>
<path d="M144 31.5L118 43.5" stroke="#ACACAC" stroke-width="2"/>
<path d="M31 31L56 44" stroke="#ACACAC" stroke-width="2"/>
<path d="M114.614 69.0001L162.5 78.5" stroke="#ACACAC" stroke-width="2"/>
<path d="M59.614 69.0001L13.614 78.0001" stroke="#ACACAC" stroke-width="2"/>
<path d="M14.16 101.504H16.464V110H14.352V108.872C13.12 109.752 11.56 110.192 9.672 110.192C8.152 110.192 6.736 109.856 5.424 109.184C4.128 108.512 3.088 107.536 2.304 106.256C1.536 104.96 1.152 103.432 1.152 101.672C1.152 100.008 1.536 98.52 2.304 97.208C3.088 95.896 4.16 94.872 5.52 94.136C6.896 93.384 8.44 93.008 10.152 93.008C11.496 93.008 12.712 93.232 13.8 93.68C14.904 94.112 15.84 94.752 16.608 95.6L15.12 97.088C13.776 95.792 12.152 95.144 10.248 95.144C8.968 95.144 7.816 95.424 6.792 95.984C5.784 96.544 4.992 97.32 4.416 98.312C3.84 99.304 3.552 100.424 3.552 101.672C3.552 103 3.84 104.152 4.416 105.128C5.008 106.104 5.784 106.848 6.744 107.36C7.704 107.856 8.744 108.104 9.864 108.104C10.648 108.104 11.408 107.976 12.144 107.72C12.896 107.448 13.568 107.056 14.16 106.544V101.504ZM27.4191 108.128C28.9391 108.128 30.1631 107.616 31.0911 106.592L32.3391 108.08C31.7791 108.752 31.0671 109.264 30.2031 109.616C29.3551 109.968 28.4031 110.144 27.3471 110.144C26.0031 110.144 24.8111 109.872 23.7711 109.328C22.7311 108.768 21.9231 107.992 21.3471 107C20.7871 106.008 20.5071 104.888 20.5071 103.64C20.5071 102.408 20.7791 101.296 21.3231 100.304C21.8831 99.312 22.6431 98.544 23.6031 98C24.5791 97.44 25.6751 97.16 26.8911 97.16C28.0431 97.16 29.0911 97.424 30.0351 97.952C30.9791 98.464 31.7311 99.192 32.2911 100.136C32.8511 101.08 33.1391 102.168 33.1551 103.4L23.0511 105.368C23.3711 106.248 23.9071 106.928 24.6591 107.408C25.4271 107.888 26.3471 108.128 27.4191 108.128ZM26.8911 99.104C26.0911 99.104 25.3711 99.288 24.7311 99.656C24.1071 100.024 23.6191 100.544 23.2671 101.216C22.9151 101.872 22.7391 102.64 22.7391 103.52V103.76L30.8751 102.224C30.6671 101.296 30.2031 100.544 29.4831 99.968C28.7631 99.392 27.8991 99.104 26.8911 99.104ZM44.1304 97.16C45.7464 97.16 47.0264 97.632 47.9704 98.576C48.9304 99.504 49.4104 100.872 49.4104 102.68V110H47.1064V102.944C47.1064 101.712 46.8104 100.784 46.2184 100.16C45.6264 99.536 44.7784 99.224 43.6744 99.224C42.4264 99.224 41.4424 99.592 40.7224 100.328C40.0024 101.048 39.6424 102.088 39.6424 103.448V110H37.3384V97.28H39.5464V99.2C40.0104 98.544 40.6344 98.04 41.4184 97.688C42.2184 97.336 43.1224 97.16 44.1304 97.16ZM54.6343 97.28H56.9383V110H54.6343V97.28ZM55.7863 94.832C55.3383 94.832 54.9623 94.688 54.6583 94.4C54.3703 94.112 54.2263 93.76 54.2263 93.344C54.2263 92.928 54.3703 92.576 54.6583 92.288C54.9623 91.984 55.3383 91.832 55.7863 91.832C56.2343 91.832 56.6023 91.976 56.8903 92.264C57.1943 92.536 57.3463 92.88 57.3463 93.296C57.3463 93.728 57.1943 94.096 56.8903 94.4C56.6023 94.688 56.2343 94.832 55.7863 94.832ZM74.2974 97.28V110H72.0894V107.984C71.5774 108.688 70.9294 109.224 70.1454 109.592C69.3614 109.96 68.4974 110.144 67.5534 110.144C66.3214 110.144 65.2174 109.872 64.2414 109.328C63.2654 108.784 62.4974 108.024 61.9374 107.048C61.3934 106.056 61.1214 104.92 61.1214 103.64C61.1214 102.36 61.3934 101.232 61.9374 100.256C62.4974 99.28 63.2654 98.52 64.2414 97.976C65.2174 97.432 66.3214 97.16 67.5534 97.16C68.4654 97.16 69.3054 97.336 70.0734 97.688C70.8414 98.024 71.4814 98.528 71.9934 99.2V97.28H74.2974ZM67.7454 108.128C68.5454 108.128 69.2734 107.944 69.9294 107.576C70.5854 107.192 71.0974 106.664 71.4654 105.992C71.8334 105.304 72.0174 104.52 72.0174 103.64C72.0174 102.76 71.8334 101.984 71.4654 101.312C71.0974 100.624 70.5854 100.096 69.9294 99.728C69.2734 99.36 68.5454 99.176 67.7454 99.176C66.9294 99.176 66.1934 99.36 65.5374 99.728C64.8974 100.096 64.3854 100.624 64.0014 101.312C63.6334 101.984 63.4494 102.76 63.4494 103.64C63.4494 104.52 63.6334 105.304 64.0014 105.992C64.3854 106.664 64.8974 107.192 65.5374 107.576C66.1934 107.944 66.9294 108.128 67.7454 108.128ZM83.4808 110.144C82.2488 110.144 81.2968 109.808 80.6248 109.136C79.9528 108.448 79.6168 107.488 79.6168 106.256V92.192H81.9208V106.064C81.9208 106.752 82.0808 107.28 82.4008 107.648C82.7368 108.016 83.2328 108.2 83.8888 108.2C84.2888 108.2 84.6648 108.12 85.0168 107.96L85.1368 109.856C84.6088 110.048 84.0568 110.144 83.4808 110.144ZM110.477 93.2V110H108.077V102.512H98.4291V110H96.0291V93.2H98.4291V100.424H108.077V93.2H110.477ZM121.578 110.144C120.314 110.144 119.178 109.864 118.17 109.304C117.162 108.744 116.37 107.976 115.794 107C115.234 106.008 114.954 104.888 114.954 103.64C114.954 102.392 115.234 101.28 115.794 100.304C116.37 99.312 117.162 98.544 118.17 98C119.178 97.44 120.314 97.16 121.578 97.16C122.842 97.16 123.97 97.44 124.962 98C125.97 98.544 126.754 99.312 127.314 100.304C127.89 101.28 128.178 102.392 128.178 103.64C128.178 104.888 127.89 106.008 127.314 107C126.754 107.976 125.97 108.744 124.962 109.304C123.97 109.864 122.842 110.144 121.578 110.144ZM121.578 108.128C122.394 108.128 123.122 107.944 123.762 107.576C124.418 107.192 124.93 106.664 125.298 105.992C125.666 105.304 125.85 104.52 125.85 103.64C125.85 102.76 125.666 101.984 125.298 101.312C124.93 100.624 124.418 100.096 123.762 99.728C123.122 99.36 122.394 99.176 121.578 99.176C120.762 99.176 120.026 99.36 119.37 99.728C118.73 100.096 118.218 100.624 117.834 101.312C117.466 101.984 117.282 102.76 117.282 103.64C117.282 104.52 117.466 105.304 117.834 105.992C118.218 106.664 118.73 107.192 119.37 107.576C120.026 107.944 120.762 108.128 121.578 108.128ZM144.18 97.28V110H141.996V108.08C141.532 108.736 140.916 109.248 140.148 109.616C139.396 109.968 138.572 110.144 137.676 110.144C135.98 110.144 134.644 109.68 133.668 108.752C132.692 107.808 132.204 106.424 132.204 104.6V97.28H134.508V104.336C134.508 105.568 134.804 106.504 135.396 107.144C135.988 107.768 136.836 108.08 137.94 108.08C139.156 108.08 140.116 107.712 140.82 106.976C141.524 106.24 141.876 105.2 141.876 103.856V97.28H144.18ZM153.174 110.144C152.134 110.144 151.134 110.008 150.174 109.736C149.214 109.448 148.462 109.088 147.918 108.656L148.878 106.832C149.438 107.232 150.118 107.552 150.918 107.792C151.718 108.032 152.526 108.152 153.342 108.152C155.358 108.152 156.366 107.576 156.366 106.424C156.366 106.04 156.23 105.736 155.958 105.512C155.686 105.288 155.342 105.128 154.926 105.032C154.526 104.92 153.95 104.8 153.198 104.672C152.174 104.512 151.334 104.328 150.678 104.12C150.038 103.912 149.486 103.56 149.022 103.064C148.558 102.568 148.326 101.872 148.326 100.976C148.326 99.824 148.806 98.904 149.766 98.216C150.726 97.512 152.014 97.16 153.63 97.16C154.478 97.16 155.326 97.264 156.174 97.472C157.022 97.68 157.718 97.96 158.262 98.312L157.278 100.136C156.238 99.464 155.014 99.128 153.606 99.128C152.63 99.128 151.886 99.288 151.374 99.608C150.862 99.928 150.606 100.352 150.606 100.88C150.606 101.296 150.75 101.624 151.038 101.864C151.326 102.104 151.678 102.28 152.094 102.392C152.526 102.504 153.126 102.632 153.894 102.776C154.918 102.952 155.742 103.144 156.366 103.352C157.006 103.544 157.55 103.88 157.998 104.36C158.446 104.84 158.67 105.512 158.67 106.376C158.67 107.528 158.174 108.448 157.182 109.136C156.206 109.808 154.87 110.144 153.174 110.144ZM168.246 108.128C169.766 108.128 170.99 107.616 171.918 106.592L173.166 108.08C172.606 108.752 171.894 109.264 171.03 109.616C170.182 109.968 169.23 110.144 168.174 110.144C166.83 110.144 165.638 109.872 164.598 109.328C163.558 108.768 162.75 107.992 162.174 107C161.614 106.008 161.334 104.888 161.334 103.64C161.334 102.408 161.606 101.296 162.15 100.304C162.71 99.312 163.47 98.544 164.43 98C165.406 97.44 166.502 97.16 167.718 97.16C168.87 97.16 169.918 97.424 170.862 97.952C171.806 98.464 172.558 99.192 173.118 100.136C173.678 101.08 173.966 102.168 173.982 103.4L163.878 105.368C164.198 106.248 164.734 106.928 165.486 107.408C166.254 107.888 167.174 108.128 168.246 108.128ZM167.718 99.104C166.918 99.104 166.198 99.288 165.558 99.656C164.934 100.024 164.446 100.544 164.094 101.216C163.742 101.872 163.566 102.64 163.566 103.52V103.76L171.702 102.224C171.494 101.296 171.03 100.544 170.31 99.968C169.59 99.392 168.726 99.104 167.718 99.104Z" fill="#90A183"/>
<mask id="path-22-inside-3_126_7316" fill="white">
<rect x="72" y="134" width="10" height="10" rx="0.5"/>
</mask>
<rect x="72" y="134" width="10" height="10" rx="0.5" fill="white" stroke="#ACACAC" stroke-width="2" mask="url(#path-22-inside-3_126_7316)"/>
<mask id="path-23-inside-4_126_7316" fill="white">
<rect x="94" y="134" width="10" height="10" rx="0.5"/>
</mask>
<rect x="94" y="134" width="10" height="10" rx="0.5" fill="white" stroke="#ACACAC" stroke-width="2" mask="url(#path-23-inside-4_126_7316)"/>
<mask id="path-24-inside-5_126_7316" fill="white">
<rect x="94" y="152" width="10" height="10" rx="0.5"/>
</mask>
<rect x="94" y="152" width="10" height="10" rx="0.5" fill="white" stroke="#ACACAC" stroke-width="2" mask="url(#path-24-inside-5_126_7316)"/>
<mask id="path-25-inside-6_126_7316" fill="white">
<rect x="72" y="152" width="10" height="10" rx="0.5"/>
</mask>
<rect x="72" y="152" width="10" height="10" rx="0.5" fill="white" stroke="#ACACAC" stroke-width="2" mask="url(#path-25-inside-6_126_7316)"/>
<path d="M77 135V144" stroke="#ACACAC"/>
<path d="M77 153V162" stroke="#ACACAC"/>
<path d="M99 135V144" stroke="#ACACAC"/>
<path d="M99 153V162" stroke="#ACACAC"/>
<path d="M72 139L80.9991 139.128" stroke="#ACACAC"/>
<path d="M72 157L80.9991 157.128" stroke="#ACACAC"/>
<path d="M94 139L102.999 139.128" stroke="#ACACAC"/>
<path d="M94 157L102.999 157.128" stroke="#ACACAC"/>
<defs>
<filter id="filter0_d_126_7316" x="7" y="0.00646973" width="172" height="207.994" filterUnits="userSpaceOnUse" color-interpolation-filters="sRGB">
<feFlood flood-opacity="0" result="BackgroundImageFix"/>
<feColorMatrix in="SourceAlpha" type="matrix" values="0 0 0 0 0 0 0 0 0 0 0 0 0 0 0 0 0 0 127 0" result="hardAlpha"/>
<feOffset dx="5" dy="5"/>
<feGaussianBlur stdDeviation="5"/>
<feComposite in2="hardAlpha" operator="out"/>
<feColorMatrix type="matrix" values="0 0 0 0 0.67451 0 0 0 0 0.67451 0 0 0 0 0.67451 0 0 0 1 0"/>
<feBlend mode="normal" in2="BackgroundImageFix" result="effect1_dropShadow_126_7316"/>
<feBlend mode="normal" in="SourceGraphic" in2="effect1_dropShadow_126_7316" result="shape"/>
</filter>
</defs>
</svg>
