<svg width="388" height="50" viewBox="0 0 388 50" fill="none" xmlns="http://www.w3.org/2000/svg">
<path d="M22.24 24.56H28.16V39H23.28V37.32C21.3333 38.76 18.8267 39.48 15.76 39.48C13.1733 39.48 10.8 38.92 8.64 37.8C6.48 36.68 4.76 35.0533 3.48 32.92C2.2 30.76 1.56 28.2 1.56 25.24C1.56 22.3867 2.21333 19.8533 3.52 17.64C4.85333 15.4 6.69333 13.6533 9.04 12.4C11.3867 11.1467 14.0267 10.52 16.96 10.52C19.4133 10.52 21.64 10.9333 23.64 11.76C25.64 12.5867 27.32 13.7867 28.68 15.36L24.52 19.2C22.52 17.0933 20.1067 16.04 17.28 16.04C15.4933 16.04 13.9067 16.4267 12.52 17.2C11.1333 17.9467 10.0533 19.0133 9.28 20.4C8.50667 21.7867 8.12 23.3867 8.12 25.2C8.12 27.0933 8.49333 28.7067 9.24 30.04C10.0133 31.3733 11.04 32.3867 12.32 33.08C13.6 33.7467 15 34.08 16.52 34.08C18.7867 34.08 20.6933 33.44 22.24 32.16V24.56ZM46.1794 34.32C47.2994 34.32 48.286 34.16 49.1394 33.84C50.0194 33.4933 50.8327 32.96 51.5794 32.24L54.8994 35.84C52.8727 38.16 49.9127 39.32 46.0194 39.32C43.5927 39.32 41.446 38.8533 39.5794 37.92C37.7127 36.96 36.2727 35.64 35.2594 33.96C34.246 32.28 33.7394 30.3733 33.7394 28.24C33.7394 26.1333 34.2327 24.24 35.2194 22.56C36.2327 20.8533 37.606 19.5333 39.3394 18.6C41.0994 17.64 43.0727 17.16 45.2594 17.16C47.3127 17.16 49.1794 17.6 50.8594 18.48C52.5394 19.3333 53.8727 20.5867 54.8594 22.24C55.8727 23.8667 56.3794 25.8 56.3794 28.04L40.4594 31.12C40.9127 32.1867 41.6194 32.9867 42.5794 33.52C43.566 34.0533 44.766 34.32 46.1794 34.32ZM45.2594 21.88C43.686 21.88 42.406 22.3867 41.4194 23.4C40.4327 24.4133 39.9127 25.8133 39.8594 27.6L50.3394 25.56C50.046 24.44 49.446 23.5467 48.5394 22.88C47.6327 22.2133 46.5394 21.88 45.2594 21.88ZM75.2538 17.16C77.9204 17.16 80.0671 17.96 81.6938 19.56C83.3471 21.16 84.1738 23.5333 84.1738 26.68V39H77.9338V27.64C77.9338 25.9333 77.5604 24.6667 76.8138 23.84C76.0671 22.9867 74.9871 22.56 73.5738 22.56C72.0004 22.56 70.7471 23.0533 69.8138 24.04C68.8804 25 68.4138 26.44 68.4138 28.36V39H62.1738V17.48H68.1338V20C68.9604 19.0933 69.9871 18.4 71.2138 17.92C72.4404 17.4133 73.7871 17.16 75.2538 17.16ZM91.43 17.48H97.67V39H91.43V17.48ZM94.55 14.48C93.4033 14.48 92.47 14.1467 91.75 13.48C91.03 12.8133 90.67 11.9867 90.67 11C90.67 10.0133 91.03 9.18667 91.75 8.52C92.47 7.85333 93.4033 7.52 94.55 7.52C95.6967 7.52 96.63 7.84 97.35 8.48C98.07 9.12 98.43 9.92 98.43 10.88C98.43 11.92 98.07 12.7867 97.35 13.48C96.63 14.1467 95.6967 14.48 94.55 14.48ZM126.901 17.48V39H120.941V36.52C119.395 38.3867 117.155 39.32 114.221 39.32C112.195 39.32 110.355 38.8667 108.701 37.96C107.075 37.0533 105.795 35.76 104.861 34.08C103.928 32.4 103.461 30.4533 103.461 28.24C103.461 26.0267 103.928 24.08 104.861 22.4C105.795 20.72 107.075 19.4267 108.701 18.52C110.355 17.6133 112.195 17.16 114.221 17.16C116.968 17.16 119.115 18.0267 120.661 19.76V17.48H126.901ZM115.301 34.2C116.875 34.2 118.181 33.6667 119.221 32.6C120.261 31.5067 120.781 30.0533 120.781 28.24C120.781 26.4267 120.261 24.9867 119.221 23.92C118.181 22.8267 116.875 22.28 115.301 22.28C113.701 22.28 112.381 22.8267 111.341 23.92C110.301 24.9867 109.781 26.4267 109.781 28.24C109.781 30.0533 110.301 31.5067 111.341 32.6C112.381 33.6667 113.701 34.2 115.301 34.2ZM141.998 39.32C139.572 39.32 137.678 38.68 136.318 37.4C134.958 36.0933 134.278 34.2533 134.278 31.88V9.32H140.518V31.52C140.518 32.4267 140.745 33.1333 141.198 33.64C141.678 34.12 142.345 34.36 143.198 34.36C143.518 34.36 143.838 34.32 144.158 34.24C144.505 34.16 144.772 34.0667 144.958 33.96L145.238 38.8C144.198 39.1467 143.118 39.32 141.998 39.32ZM188.95 11V39H182.47V27.52H169.75V39H163.27V11H169.75V22.04H182.47V11H188.95ZM206.975 39.32C204.708 39.32 202.668 38.8533 200.855 37.92C199.068 36.96 197.668 35.64 196.655 33.96C195.641 32.28 195.135 30.3733 195.135 28.24C195.135 26.1067 195.641 24.2 196.655 22.52C197.668 20.84 199.068 19.5333 200.855 18.6C202.668 17.64 204.708 17.16 206.975 17.16C209.241 17.16 211.268 17.64 213.055 18.6C214.841 19.5333 216.241 20.84 217.255 22.52C218.268 24.2 218.775 26.1067 218.775 28.24C218.775 30.3733 218.268 32.28 217.255 33.96C216.241 35.64 214.841 36.96 213.055 37.92C211.268 38.8533 209.241 39.32 206.975 39.32ZM206.975 34.2C208.575 34.2 209.881 33.6667 210.895 32.6C211.935 31.5067 212.455 30.0533 212.455 28.24C212.455 26.4267 211.935 24.9867 210.895 23.92C209.881 22.8267 208.575 22.28 206.975 22.28C205.375 22.28 204.055 22.8267 203.015 23.92C201.975 24.9867 201.455 26.4267 201.455 28.24C201.455 30.0533 201.975 31.5067 203.015 32.6C204.055 33.6667 205.375 34.2 206.975 34.2ZM246.226 17.48V39H240.306V36.44C239.479 37.3733 238.492 38.0933 237.346 38.6C236.199 39.08 234.959 39.32 233.626 39.32C230.799 39.32 228.559 38.5067 226.906 36.88C225.252 35.2533 224.426 32.84 224.426 29.64V17.48H230.666V28.72C230.666 32.1867 232.119 33.92 235.026 33.92C236.519 33.92 237.719 33.44 238.626 32.48C239.532 31.4933 239.986 30.04 239.986 28.12V17.48H246.226ZM260.847 39.32C259.06 39.32 257.313 39.1067 255.607 38.68C253.9 38.2267 252.54 37.6667 251.527 37L253.607 32.52C254.567 33.1333 255.727 33.64 257.087 34.04C258.447 34.4133 259.78 34.6 261.087 34.6C263.727 34.6 265.047 33.9467 265.047 32.64C265.047 32.0267 264.687 31.5867 263.967 31.32C263.247 31.0533 262.14 30.8267 260.647 30.64C258.887 30.3733 257.433 30.0667 256.287 29.72C255.14 29.3733 254.14 28.76 253.287 27.88C252.46 27 252.047 25.7467 252.047 24.12C252.047 22.76 252.433 21.56 253.207 20.52C254.007 19.4533 255.153 18.6267 256.647 18.04C258.167 17.4533 259.953 17.16 262.007 17.16C263.527 17.16 265.033 17.3333 266.527 17.68C268.047 18 269.3 18.4533 270.287 19.04L268.207 23.48C266.313 22.4133 264.247 21.88 262.007 21.88C260.673 21.88 259.673 22.0667 259.007 22.44C258.34 22.8133 258.007 23.2933 258.007 23.88C258.007 24.5467 258.367 25.0133 259.087 25.28C259.807 25.5467 260.953 25.8 262.527 26.04C264.287 26.3333 265.727 26.6533 266.847 27C267.967 27.32 268.94 27.92 269.767 28.8C270.593 29.68 271.007 30.9067 271.007 32.48C271.007 33.8133 270.607 35 269.807 36.04C269.007 37.08 267.833 37.8933 266.287 38.48C264.767 39.04 262.953 39.32 260.847 39.32ZM287.297 34.32C288.417 34.32 289.403 34.16 290.257 33.84C291.137 33.4933 291.95 32.96 292.697 32.24L296.017 35.84C293.99 38.16 291.03 39.32 287.137 39.32C284.71 39.32 282.563 38.8533 280.697 37.92C278.83 36.96 277.39 35.64 276.377 33.96C275.363 32.28 274.857 30.3733 274.857 28.24C274.857 26.1333 275.35 24.24 276.337 22.56C277.35 20.8533 278.723 19.5333 280.457 18.6C282.217 17.64 284.19 17.16 286.377 17.16C288.43 17.16 290.297 17.6 291.977 18.48C293.657 19.3333 294.99 20.5867 295.977 22.24C296.99 23.8667 297.497 25.8 297.497 28.04L281.577 31.12C282.03 32.1867 282.737 32.9867 283.697 33.52C284.683 34.0533 285.883 34.32 287.297 34.32ZM286.377 21.88C284.803 21.88 283.523 22.3867 282.537 23.4C281.55 24.4133 281.03 25.8133 280.977 27.6L291.457 25.56C291.163 24.44 290.563 23.5467 289.657 22.88C288.75 22.2133 287.657 21.88 286.377 21.88Z" fill="#90A183"/>
<rect x="363.917" y="3.35498" width="22.5472" height="28.6477" rx="11.2736" fill="#F3F5F2" stroke="#90A183" stroke-width="2"/>
<line x1="375.179" y1="15.0142" x2="375.179" y2="46.9388" stroke="#90A183" stroke-width="2"/>
<rect x="338" y="22.512" width="17.6608" height="17.3729" rx="8.68644" fill="#F3F5F2" stroke="#90A183" stroke-width="2"/>
<line x1="347.831" y1="30.9766" x2="347.831" y2="46.717" stroke="#90A183" stroke-width="2"/>
</svg>
