<svg width="368" height="47" viewBox="0 0 368 47" fill="none" xmlns="http://www.w3.org/2000/svg">
<path d="M22.24 29.56H28.16V44H23.28V42.32C21.3333 43.76 18.8267 44.48 15.76 44.48C13.1733 44.48 10.8 43.92 8.64 42.8C6.48 41.68 4.76 40.0533 3.48 37.92C2.2 35.76 1.56 33.2 1.56 30.24C1.56 27.3867 2.21333 24.8533 3.52 22.64C4.85333 20.4 6.69333 18.6533 9.04 17.4C11.3867 16.1467 14.0267 15.52 16.96 15.52C19.4133 15.52 21.64 15.9333 23.64 16.76C25.64 17.5867 27.32 18.7867 28.68 20.36L24.52 24.2C22.52 22.0933 20.1067 21.04 17.28 21.04C15.4933 21.04 13.9067 21.4267 12.52 22.2C11.1333 22.9467 10.0533 24.0133 9.28 25.4C8.50667 26.7867 8.12 28.3867 8.12 30.2C8.12 32.0933 8.49333 33.7067 9.24 35.04C10.0133 36.3733 11.04 37.3867 12.32 38.08C13.6 38.7467 15 39.08 16.52 39.08C18.7867 39.08 20.6933 38.44 22.24 37.16V29.56ZM45.3794 39.32C46.4994 39.32 47.486 39.16 48.3394 38.84C49.2194 38.4933 50.0327 37.96 50.7794 37.24L54.0994 40.84C52.0727 43.16 49.1127 44.32 45.2194 44.32C42.7927 44.32 40.646 43.8533 38.7794 42.92C36.9127 41.96 35.4727 40.64 34.4594 38.96C33.446 37.28 32.9394 35.3733 32.9394 33.24C32.9394 31.1333 33.4327 29.24 34.4194 27.56C35.4327 25.8533 36.806 24.5333 38.5394 23.6C40.2994 22.64 42.2727 22.16 44.4594 22.16C46.5127 22.16 48.3794 22.6 50.0594 23.48C51.7394 24.3333 53.0727 25.5867 54.0594 27.24C55.0727 28.8667 55.5794 30.8 55.5794 33.04L39.6594 36.12C40.1127 37.1867 40.8194 37.9867 41.7794 38.52C42.766 39.0533 43.966 39.32 45.3794 39.32ZM44.4594 26.88C42.886 26.88 41.606 27.3867 40.6194 28.4C39.6327 29.4133 39.1127 30.8133 39.0594 32.6L49.5394 30.56C49.246 29.44 48.646 28.5467 47.7394 27.88C46.8327 27.2133 45.7394 26.88 44.4594 26.88ZM73.6537 22.16C76.3204 22.16 78.4671 22.96 80.0937 24.56C81.7471 26.16 82.5738 28.5333 82.5738 31.68V44H76.3337V32.64C76.3337 30.9333 75.9604 29.6667 75.2137 28.84C74.4671 27.9867 73.3871 27.56 71.9737 27.56C70.4004 27.56 69.1471 28.0533 68.2137 29.04C67.2804 30 66.8137 31.44 66.8137 33.36V44H60.5737V22.48H66.5337V25C67.3604 24.0933 68.3871 23.4 69.6137 22.92C70.8404 22.4133 72.1871 22.16 73.6537 22.16ZM89.03 22.48H95.27V44H89.03V22.48ZM92.15 19.48C91.0033 19.48 90.07 19.1467 89.35 18.48C88.63 17.8133 88.27 16.9867 88.27 16C88.27 15.0133 88.63 14.1867 89.35 13.52C90.07 12.8533 91.0033 12.52 92.15 12.52C93.2967 12.52 94.23 12.84 94.95 13.48C95.67 14.12 96.03 14.92 96.03 15.88C96.03 16.92 95.67 17.7867 94.95 18.48C94.23 19.1467 93.2967 19.48 92.15 19.48ZM123.701 22.48V44H117.741V41.52C116.195 43.3867 113.955 44.32 111.021 44.32C108.995 44.32 107.155 43.8667 105.501 42.96C103.875 42.0533 102.595 40.76 101.661 39.08C100.728 37.4 100.261 35.4533 100.261 33.24C100.261 31.0267 100.728 29.08 101.661 27.4C102.595 25.72 103.875 24.4267 105.501 23.52C107.155 22.6133 108.995 22.16 111.021 22.16C113.768 22.16 115.915 23.0267 117.461 24.76V22.48H123.701ZM112.101 39.2C113.675 39.2 114.981 38.6667 116.021 37.6C117.061 36.5067 117.581 35.0533 117.581 33.24C117.581 31.4267 117.061 29.9867 116.021 28.92C114.981 27.8267 113.675 27.28 112.101 27.28C110.501 27.28 109.181 27.8267 108.141 28.92C107.101 29.9867 106.581 31.4267 106.581 33.24C106.581 35.0533 107.101 36.5067 108.141 37.6C109.181 38.6667 110.501 39.2 112.101 39.2ZM137.998 44.32C135.572 44.32 133.678 43.68 132.318 42.4C130.958 41.0933 130.278 39.2533 130.278 36.88V14.32H136.518V36.52C136.518 37.4267 136.745 38.1333 137.198 38.64C137.678 39.12 138.345 39.36 139.198 39.36C139.518 39.36 139.838 39.32 140.158 39.24C140.505 39.16 140.772 39.0667 140.958 38.96L141.238 43.8C140.198 44.1467 139.118 44.32 137.998 44.32ZM183.35 16V44H176.87V32.52H164.15V44H157.67V16H164.15V27.04H176.87V16H183.35ZM200.575 44.32C198.308 44.32 196.268 43.8533 194.455 42.92C192.668 41.96 191.268 40.64 190.255 38.96C189.241 37.28 188.735 35.3733 188.735 33.24C188.735 31.1067 189.241 29.2 190.255 27.52C191.268 25.84 192.668 24.5333 194.455 23.6C196.268 22.64 198.308 22.16 200.575 22.16C202.841 22.16 204.868 22.64 206.655 23.6C208.441 24.5333 209.841 25.84 210.855 27.52C211.868 29.2 212.375 31.1067 212.375 33.24C212.375 35.3733 211.868 37.28 210.855 38.96C209.841 40.64 208.441 41.96 206.655 42.92C204.868 43.8533 202.841 44.32 200.575 44.32ZM200.575 39.2C202.175 39.2 203.481 38.6667 204.495 37.6C205.535 36.5067 206.055 35.0533 206.055 33.24C206.055 31.4267 205.535 29.9867 204.495 28.92C203.481 27.8267 202.175 27.28 200.575 27.28C198.975 27.28 197.655 27.8267 196.615 28.92C195.575 29.9867 195.055 31.4267 195.055 33.24C195.055 35.0533 195.575 36.5067 196.615 37.6C197.655 38.6667 198.975 39.2 200.575 39.2ZM239.026 22.48V44H233.106V41.44C232.279 42.3733 231.292 43.0933 230.146 43.6C228.999 44.08 227.759 44.32 226.426 44.32C223.599 44.32 221.359 43.5067 219.706 41.88C218.052 40.2533 217.226 37.84 217.226 34.64V22.48H223.466V33.72C223.466 37.1867 224.919 38.92 227.826 38.92C229.319 38.92 230.519 38.44 231.426 37.48C232.332 36.4933 232.786 35.04 232.786 33.12V22.48H239.026ZM252.847 44.32C251.06 44.32 249.313 44.1067 247.607 43.68C245.9 43.2267 244.54 42.6667 243.527 42L245.607 37.52C246.567 38.1333 247.727 38.64 249.087 39.04C250.447 39.4133 251.78 39.6 253.087 39.6C255.727 39.6 257.047 38.9467 257.047 37.64C257.047 37.0267 256.687 36.5867 255.967 36.32C255.247 36.0533 254.14 35.8267 252.647 35.64C250.887 35.3733 249.433 35.0667 248.287 34.72C247.14 34.3733 246.14 33.76 245.287 32.88C244.46 32 244.047 30.7467 244.047 29.12C244.047 27.76 244.433 26.56 245.207 25.52C246.007 24.4533 247.153 23.6267 248.647 23.04C250.167 22.4533 251.953 22.16 254.007 22.16C255.527 22.16 257.033 22.3333 258.527 22.68C260.047 23 261.3 23.4533 262.287 24.04L260.207 28.48C258.313 27.4133 256.247 26.88 254.007 26.88C252.673 26.88 251.673 27.0667 251.007 27.44C250.34 27.8133 250.007 28.2933 250.007 28.88C250.007 29.5467 250.367 30.0133 251.087 30.28C251.807 30.5467 252.953 30.8 254.527 31.04C256.287 31.3333 257.727 31.6533 258.847 32C259.967 32.32 260.94 32.92 261.767 33.8C262.593 34.68 263.007 35.9067 263.007 37.48C263.007 38.8133 262.607 40 261.807 41.04C261.007 42.08 259.833 42.8933 258.287 43.48C256.767 44.04 254.953 44.32 252.847 44.32ZM278.497 39.32C279.617 39.32 280.603 39.16 281.457 38.84C282.337 38.4933 283.15 37.96 283.897 37.24L287.217 40.84C285.19 43.16 282.23 44.32 278.337 44.32C275.91 44.32 273.763 43.8533 271.897 42.92C270.03 41.96 268.59 40.64 267.577 38.96C266.563 37.28 266.057 35.3733 266.057 33.24C266.057 31.1333 266.55 29.24 267.537 27.56C268.55 25.8533 269.923 24.5333 271.657 23.6C273.417 22.64 275.39 22.16 277.577 22.16C279.63 22.16 281.497 22.6 283.177 23.48C284.857 24.3333 286.19 25.5867 287.177 27.24C288.19 28.8667 288.697 30.8 288.697 33.04L272.777 36.12C273.23 37.1867 273.937 37.9867 274.897 38.52C275.883 39.0533 277.083 39.32 278.497 39.32ZM277.577 26.88C276.003 26.88 274.723 27.3867 273.737 28.4C272.75 29.4133 272.23 30.8133 272.177 32.6L282.657 30.56C282.363 29.44 281.763 28.5467 280.857 27.88C279.95 27.2133 278.857 26.88 277.577 26.88Z" fill="#90A183"/>
<rect x="343.917" y="1.35498" width="22.5472" height="28.6477" rx="11.2736" fill="#F3F5F2" stroke="#90A183" stroke-width="2"/>
<line x1="355.179" y1="13.0142" x2="355.179" y2="44.9388" stroke="#90A183" stroke-width="2"/>
<rect x="318" y="20.512" width="17.6608" height="17.3729" rx="8.68644" fill="#F3F5F2" stroke="#90A183" stroke-width="2"/>
<line x1="327.831" y1="28.9766" x2="327.831" y2="44.717" stroke="#90A183" stroke-width="2"/>
</svg>
