<svg xmlns="http://www.w3.org/2000/svg" width="184" height="183" fill="none"><path fill="#286359" d="M176.556 67.765a2.42 2.42 0 0 0-3.122 1.413c-.687 1.815-1.452 3.3-2.256 4.484-.693 1.04-1.413 1.85-2.139 2.48 0-.067.006-.14.006-.206 0-1.81-.241-3.413-.704-4.826-.693-2.122-1.91-3.803-3.429-4.897-1.514-1.106-3.284-1.598-4.971-1.598-1.854 0-3.657.581-5.138 1.665a8.254 8.254 0 0 0-1.926 2.033 7.772 7.772 0 0 0-1.083 2.725c-.084.47-.123.938-.123 1.396 0 1.474.407 2.882 1.078 4.138.994 1.894 2.557 3.485 4.467 4.641 1.106.676 2.352 1.2 3.67 1.52-.079.066-.151.139-.229.211-2.005 1.653-4.77 3.038-7.69 3.988-6.791-9.383-16.766-16.363-28.332-20.39v14.101H74.836V67.257a80.449 80.449 0 0 0-11.756 5.328 111.168 111.168 0 0 0-10.197 6.439c-8.288-9.974-29.153-11.639-26.467-3.881 2.436 7.03 6.015 14.737 7.685 19.306-6.272 5.283-12.069 9.382-19.692 10.801-6.953 1.296-9.025 3.139-7.718 9.941l2.876 22.758s8.12 4.685 10.991 6.283c6.35 3.501 18.826 11.147 37.278 16.832L64.834 183h17.503v-16.531a163.51 163.51 0 0 0 22.568 1.542c4.188 0 8.125-.279 11.822-.81V183h17.503l8.131-25.489c19.351-13.671 24.126-38.144 17.285-57.802a49.736 49.736 0 0 0-3.96-8.6c2.614-.961 5.116-2.212 7.261-3.82 1.608-1.196 3.027-2.597 4.099-4.24.106-.161.212-.318.307-.485.168-.056.341-.1.514-.162 2.016-.709 3.976-2.016 5.691-3.926 1.72-1.904 3.211-4.412 4.412-7.59a2.432 2.432 0 0 0-1.414-3.121ZM35.95 117.324a4.67 4.67 0 0 1-4.67-4.669 4.674 4.674 0 0 1 4.67-4.669 4.67 4.67 0 0 1 0 9.338Zm128.208-40.2a6.73 6.73 0 0 1-.185 1.129h-.139c-.972 0-1.932-.19-2.832-.547-1.34-.525-2.518-1.408-3.312-2.39-.391-.492-.698-1.006-.887-1.498a3.772 3.772 0 0 1-.291-1.385c0-.178.023-.351.05-.519.068-.363.196-.664.386-.966.273-.425.692-.793 1.228-1.072a3.96 3.96 0 0 1 1.765-.425c.503 0 1 .1 1.464.302.346.15.67.357.977.636.463.425.905 1.028 1.245 1.921.335.888.575 2.078.575 3.625.001.369-.016.777-.044 1.19Z"/><path fill="#FFC107" d="M108.199 41.271a6.701 6.701 0 0 1-1.971 2.257c-.832.614-1.832 1.072-2.999 1.368-.509.128-1.039.218-1.581.285v3.384H97.61V45.26c-1.15-.1-2.245-.28-3.284-.57-1.58-.43-3.658-2.178-3.658-2.178a.666.666 0 0 1-.128-1.039l2.027-2.021a.652.652 0 0 1 .815-.095s1.514 1.301 2.67 1.62c1.145.312 2.284.474 3.418.474 1.435 0 2.619-.251 3.557-.76.944-.508 1.408-1.295 1.408-2.379 0-.77-.223-1.385-.693-1.837-.463-.447-1.24-.715-2.346-.843l-3.63-.313c-2.144-.212-3.803-.804-4.959-1.793-1.172-.989-1.753-2.48-1.753-4.473 0-1.106.229-2.09.676-2.955a6.56 6.56 0 0 1 1.831-2.195c.777-.592 1.681-1.038 2.715-1.346.424-.117.876-.206 1.334-.274v-2.92h4.038v2.865c.944.089 1.843.234 2.675.469 1.419.385 2.91 1.553 2.91 1.553.184.1.313.279.346.485a.665.665 0 0 1-.19.564l-1.899 1.927a.652.652 0 0 1-.77.128s-1.123-.798-2.094-1.055a12.204 12.204 0 0 0-3.066-.385c-1.402 0-2.436.279-3.111.815-.67.536-1.005 1.229-1.005 2.1 0 .782.24 1.363.714 1.793.48.413 1.285.687 2.419.798l3.178.268c2.356.213 4.138.838 5.344 1.888 1.212 1.038 1.815 2.557 1.815 4.557 0 1.201-.24 2.24-.715 3.14Z"/><path fill="#FFC107" d="M99.632 0C80.873 0 65.666 15.213 65.666 33.972c0 18.753 15.207 33.955 33.966 33.955 18.754 0 33.961-15.202 33.961-33.955C133.593 15.212 118.386 0 99.633 0Zm0 62.621c-15.799 0-28.655-12.85-28.655-28.65 0-15.81 12.856-28.665 28.655-28.665 15.799 0 28.655 12.856 28.655 28.666 0 15.799-12.856 28.65-28.655 28.65Z"/><path fill="#FFC107" d="M100.426 11.136h.028a1.06 1.06 0 0 0 .044-2.122H100.313c-.161 0-.312-.011-.469-.011h-.067l-.006-.006H99.49l-.01.006H99.271l-.01.01H98.754l-.006.012H98.407l-.011.011H98.22l-.022.006H98.17l-.028.005h-.072l-.028.011h-.157c-.486.028-.966.084-1.44.146-.581.072-.995.603-.922 1.19.067.53.525.92 1.055.92h.134a21.91 21.91 0 0 1 2.91-.19c.273 0 .541 0 .804.012ZM90.266 11.94a1.06 1.06 0 0 0-.955-.603.978.978 0 0 0-.463.112c-.352.167-.71.346-1.067.536l-.061.039-.011.005-.028.011h-.006l-.023.023h-.022v.011l-.011.006-.006.005h-.011l-.006.006h-.005l-.006.006h-.006l-.006.006-.005.005h-.017v.011h-.006l-.005.006h-.006l-.011.006-.006.006-.011.005h-.012l-.009.01h-.011l-.006.011h-.006l-.01.011h-.007v.006l-.016.006-.023.011h-.011l-.023.011-.005.011-.034.017c-.43.246-.849.497-1.262.765a1.067 1.067 0 0 0-.313 1.469c.207.307.547.486.894.486.2 0 .402-.062.575-.18.815-.524 1.67-.999 2.535-1.418.532-.25.755-.893.504-1.418ZM92.093 55.545a23.94 23.94 0 0 1-2.675-1.139 1.06 1.06 0 0 0-1.43.48 1.063 1.063 0 0 0 .475 1.419c.324.156.654.312.983.469l.034.011h.005l.034.011.011.006.011.005v.012h.022l.011.01h.012l.01.012h.023l.011.005.006.006h.005l.012.006h.005l.006.006.011.01h.011l.006.006h.011v.006h.006l.006.006h.017v.006h.011l.006.005.01.006H89.778l.006.011h.016l.006.006h.006l.006.006h.005l.023.01h.011l.023.017h.011l.006.006.022.011h.012v.006h.006l.022.006.011.005.028.011.011.006.023.011.01.006.023.006.011.005.034.017.034.011.01.011.023.006.011.006h.006l.023.006h.005l.006.01h.006l.028.017h.011l.028.011h.006l.022.012.017.005.022.006.006.011.028.006.011.006h.012l.022.01.011.006.023.011.01.006h.012l.017.006h.006l.005.006h.006l.006.005h.006l.005.006h.033l.007.011h.011l.006.011h.01l.007.006h.005l.011.006.006.005h.006l.005.006H90.69l.011.011h.011v.006h.011l.011.006.011.005h.012l.017.011h.011l.006.006.011.006h.006l.005.005h.028l.023.012.01.01c.18.068.358.124.526.19.123.034.24.062.357.062.441 0 .844-.28 1-.715.18-.556-.11-1.165-.663-1.35ZM81.593 47.99a1.04 1.04 0 0 0-.832-.408c-.23 0-.464.067-.653.218a1.065 1.065 0 0 0-.19 1.49c.19.252.39.492.592.727l.016.022.006.006v.005l.011.023h.011v.011h.012v.006l.005.005h.006l.006.006.006.006v.011l.005.006.011.01.006.007.006.01.011.012h.006v.005h.005v.011l.017.006v.006l.006.006.011.022h.006l.005.006h.006l.011.017.011.022c.42.486.86.955 1.319 1.408.206.212.48.313.748.313a1.06 1.06 0 0 0 .748-1.815 23.224 23.224 0 0 1-1.934-2.18ZM75.853 32.536c.542 0 1-.402 1.055-.944.1-.966.263-1.937.486-2.876a1.07 1.07 0 0 0-.793-1.279l-.24-.027c-.486 0-.916.33-1.034.82a24.243 24.243 0 0 0-.53 3.145 1.07 1.07 0 0 0 .944 1.161h.112ZM80.159 22.015a24.097 24.097 0 0 1 1.68-2.379 1.062 1.062 0 0 0-.826-1.731c-.307 0-.615.14-.827.402-.168.212-.34.43-.508.653l-.011.017-.006.006v.005l-.023.023h-.005l-.017.034v.01l-.023.023-.028.023v.005l-.044.056c-.28.385-.547.77-.81 1.167l-.017.028v.006l-.006.006-.01.017-.006.01v.012l-.011.01-.006.006h-.006l-.006.006-.005.023-.006.005-.006.006-.005.006v.011l-.006.006-.006.011h-.006l-.005.006v.016l-.006.006h-.006l-.005.006v.011l-.006.011h-.006v.006l-.011.006-.011.022c-.067.112-.134.212-.196.319a1.058 1.058 0 0 0 .9 1.614c.36-.004.706-.176.907-.506ZM77.31 38.836a1.066 1.066 0 0 0-1.038-.832l-.23.017c-.57.123-.938.687-.81 1.262.224 1.05.52 2.072.872 3.066a1.063 1.063 0 0 0 2-.72 21.111 21.111 0 0 1-.794-2.793ZM112.259 53.211c-.19 0-.385.056-.564.157a22.15 22.15 0 0 1-2.558 1.379c-.536.246-.77.877-.53 1.408.179.385.564.62.966.62.151 0 .302-.034.441-.101a23.776 23.776 0 0 0 1.726-.871h.011l.022-.017.011-.006.017-.011h.006l.006-.006.016-.005h.006l.011-.017h.006l.006-.006.011-.006h.011v-.005h.012l.011-.012h.005l.006-.01h.017l.011-.012h.011v-.005l.006-.006.017-.006.005-.006h.011l.023-.01h.006l.005-.017c.268-.151.531-.307.799-.47.497-.313.642-.966.335-1.463a1.08 1.08 0 0 0-.901-.496ZM120.357 45.934a1.07 1.07 0 0 0-1.469.319 22.06 22.06 0 0 1-1.721 2.35 1.051 1.051 0 0 0 .14 1.492c.196.173.436.251.676.251.302 0 .609-.128.81-.374a26.093 26.093 0 0 0 1.547-2.066h.006v-.011h.005l.011-.012h.006v-.016l.011-.011.006-.012.006-.005v-.006l.005-.006.012-.01v-.007l.005-.005.006-.006v-.006l.006-.01h.005l.006-.012.006-.01.006-.007.005-.005h.006v-.011l.011-.023.006-.006v-.005l.017-.017.005-.006.006-.01.017-.023.162-.257a1.059 1.059 0 0 0-.326-1.457ZM123.077 30.336l.206-.01c.57-.113.944-.677.838-1.252l-.028-.128h-.006v-.017l-.005-.017v-.017l-.006-.017v-.006l-.006-.01v-.034h-.005v-.022l-.006-.012v-.005l-.006-.006V28.756l-.006-.011v-.006l-.005-.011v-.012l-.006-.005v-.017h-.006v-.022l-.005-.011v-.023l-.006-.011V28.605l-.004-.011v-.023l-.006-.01v-.007l-.011-.027v-.017l-.006-.028v-.011l-.016-.034-.006-.045a26.176 26.176 0 0 0-.425-1.619l-.011-.039-.028-.073-.011-.044-.011-.034v-.005l-.006-.011-.011-.04-.011-.033v-.011l-.011-.023-.006-.01v-.006l-.005-.017v-.017l-.006-.017h-.006v-.016h-.005l-.006-.012V26.337h-.006v-.022l-.011-.006v-.017l-.006-.011-.005-.011v-.023l-.006-.005v-.006h-.006v-.022l-.011-.006v-.017h-.006V26.164l-.005-.005-.006-.011v-.012h-.006v-.017l-.005-.005v-.017h-.006v-.016l-.017-.023v-.022h-.006v-.011l-.005-.011-.006-.011a1.057 1.057 0 0 0-1.006-.726.934.934 0 0 0-.34.061 1.062 1.062 0 0 0-.665 1.346c.307.91.564 1.855.754 2.804.098.508.545.848 1.042.848ZM102.262 56.674h-.117c-.832.1-1.676.145-2.513.145-.134 0-.268-.011-.402-.017h-.017c-.575 0-1.05.475-1.056 1.05a1.056 1.056 0 0 0 1.04 1.078H100.307l.089-.01h.017a29.248 29.248 0 0 0 1.972-.135 1.06 1.06 0 0 0 .938-1.167 1.082 1.082 0 0 0-1.062-.944ZM123.485 35.82l-.123-.01c-.531 0-.989.396-1.056.938a22.97 22.97 0 0 1-.536 2.859c-.14.57.207 1.14.771 1.285l.262.038c.475 0 .899-.318 1.022-.804.056-.212.112-.419.157-.648v-.005l.011-.023v-.017h.005v-.022l.006-.006v-.033h.006l.006-.006v-.028l.005-.006V39.304l.006-.011.006-.023v-.022l.011-.022v-.011l.011-.04c.151-.714.274-1.44.357-2.177a1.053 1.053 0 0 0-.927-1.177ZM110.69 13.828c.38 0 .748-.207.938-.57a1.057 1.057 0 0 0-.447-1.43 24.297 24.297 0 0 0-1.977-.92l-.039-.018-.005-.006-.023-.01h-.017l-.016-.012h-.017l-.034-.016-.039-.017h-.005l-.023-.017h-.006l-.005-.006-.023-.005-.017-.011-.022-.006h-.011v-.006l-.039-.011-.028-.011c-.19-.078-.374-.145-.559-.212a.98.98 0 0 0-.368-.073c-.43 0-.838.268-1 .698a1.053 1.053 0 0 0 .631 1.357c.905.34 1.798.732 2.659 1.184.157.084.325.118.492.118ZM118.76 20.686a1.1 1.1 0 0 0 .637-.212 1.063 1.063 0 0 0 .207-1.486 27.44 27.44 0 0 0-1.117-1.385l-.017-.017-.006-.005v-.006l-.022-.017-.006-.011-.006-.006-.011-.01-.006-.012-.005-.005h-.005l-.011-.011-.006-.006v-.006l-.006-.006v-.005l-.006-.006h-.005l-.006-.006v-.005l-.006-.006h-.005l-.006-.011-.006-.006v-.006h-.006l-.005-.005-.006-.011-.006-.006-.005-.006-.006-.006-.006-.005-.006-.006h-.005v-.011h-.006v-.006l-.023-.017-.005-.005-.017-.023-.006-.011-.017-.017v-.005l-.011-.006-.016-.017-.006-.006v-.005l-.017-.017-.006-.011h-.005l-.023-.023-.022-.022v-.011l-.051-.05v-.007c-.173-.178-.346-.368-.525-.552a1.073 1.073 0 0 0-.765-.319 1.06 1.06 0 0 0-.754 1.799c.67.698 1.306 1.44 1.893 2.211.205.283.524.428.853.428Z"/></svg>