<svg width="3769" height="162" viewBox="0 0 3769 162" fill="none" xmlns="http://www.w3.org/2000/svg">
<path d="M0.722656 161H69.4819V61.056L161.802 8.61905V161H193.621V52.0924H290.871V161H319.105V8.61905H410.528V161H443.244V92.4286L466.996 68.6751H539.149L562.901 92.4286V161H591.583V22.0644H700.485V61.056H740.819L748.438 161H776.671V61.056L823.28 32.3726L868.095 61.056V161H907.085V68.6751L947.419 32.3726L995.371 68.6751V161H1028.09V41.3361L1132.96 78.9832V161H1168.81V41.3361H1264.71V161H1297.43V68.6751H1363.31V22.0644H1433.67V161H1474V1H1563.63V161H1589.18V1H1664.02L1671.64 41.3361H1704.35V161H1750.96V68.6751H1845.07V161H1919.72" stroke="#FFC107" stroke-opacity="0.8" stroke-width="2"/>
<path d="M1850 161H1918.76V61.056L2011.08 8.61905V161H2042.9V52.0924H2140.15V161H2168.38V8.61905H2259.81V161H2292.52V92.4286L2316.27 68.6751H2388.43L2412.18 92.4286V161H2440.86V22.0644H2549.76V61.056H2590.1L2597.71 161H2625.95V61.056L2672.56 32.3726L2717.37 61.056V161H2756.36V68.6751L2796.7 32.3726L2844.65 68.6751V161H2877.36V41.3361L2982.23 78.9832V161H3018.08V41.3361H3113.99V161H3146.71V68.6751H3212.58V22.0644H3282.94V161H3323.28V1H3412.91V161H3438.45V1H3513.3L3520.92 41.3361H3553.63V161H3600.24V68.6751H3694.35V161H3769" stroke="#FFC107" stroke-opacity="0.8" stroke-width="2"/>
</svg>
